# Blender v3.3.0 OBJ File: ''
# www.blender.org
mtllib gun.mtl
o Cube_Cube.001
v -0.050000 -0.050000 0.050000
v -0.050000 0.250000 0.050000
v -0.050000 -0.050000 -0.050000
v -0.050000 0.250000 -0.050000
v 0.050000 -0.050000 0.050000
v 0.050000 0.250000 0.050000
v 0.050000 -0.050000 -0.050000
v 0.050000 0.250000 -0.050000
v -0.050000 0.145000 0.050000
v -0.050000 0.145000 -0.050000
v 0.050000 0.145000 -0.050000
v 0.050000 0.145000 0.050000
v -0.350000 0.145000 0.050000
v -0.350000 0.250000 0.050000
v -0.350000 0.250000 -0.050000
v -0.350000 0.145000 -0.050000
vt 0.625000 1.000000
vt 0.537500 1.000000
vt 0.537500 1.000000
vt 0.625000 0.250000
vt 0.537500 0.500000
vt 0.537500 0.250000
vt 0.625000 0.500000
vt 0.537500 0.750000
vt 0.625000 0.750000
vt 0.375000 0.500000
vt 0.125000 0.750000
vt 0.125000 0.500000
vt 0.875000 0.500000
vt 0.375000 1.000000
vt 0.375000 0.750000
vt 0.375000 0.250000
vt 0.537500 0.000000
vt 0.375000 0.000000
vt 0.625000 0.000000
vt 0.537500 0.250000
vt 0.537500 0.000000
vt 0.875000 0.750000
vt 0.875000 0.750000
vt 0.625000 0.250000
vt 0.625000 1.000000
vt 0.875000 0.500000
vn 0.0000 0.0000 1.0000
vn 0.0000 0.0000 -1.0000
vn 1.0000 0.0000 0.0000
vn 0.0000 -1.0000 0.0000
vn 0.0000 1.0000 0.0000
vn -1.0000 0.0000 0.0000
usemtl None
s off
f 2/1/1 13/2/1 9/3/1
f 4/4/2 11/5/2 10/6/2
f 8/7/3 12/8/3 11/5/3
f 6/9/1 9/3/1 12/8/1
f 7/10/4 1/11/4 3/12/4
f 4/13/5 6/9/5 8/7/5
f 12/8/1 1/14/1 5/15/1
f 11/5/3 5/15/3 7/10/3
f 10/6/2 7/10/2 3/16/2
f 9/17/6 3/16/6 1/18/6
f 14/19/6 16/20/6 13/21/6
f 9/17/4 16/20/4 10/6/4
f 4/13/5 14/22/5 2/23/5
f 10/6/2 15/24/2 4/4/2
f 2/1/1 14/25/1 13/2/1
f 4/4/2 8/7/2 11/5/2
f 8/7/3 6/9/3 12/8/3
f 6/9/1 2/1/1 9/3/1
f 7/10/4 5/15/4 1/11/4
f 4/13/5 2/23/5 6/9/5
f 12/8/1 9/3/1 1/14/1
f 11/5/3 12/8/3 5/15/3
f 10/6/2 11/5/2 7/10/2
f 9/17/6 10/6/6 3/16/6
f 14/19/6 15/24/6 16/20/6
f 9/17/4 13/21/4 16/20/4
f 4/13/5 15/26/5 14/22/5
f 10/6/2 16/20/2 15/24/2
